<svg xmlns="http://www.w3.org/2000/svg" width="32" height="32" viewBox="0 0 32 32">
  <!-- Cosmic background -->
  <rect width="32" height="32" fill="#0a0a0a"/>
  
  <!-- Stars -->
  <circle cx="5" cy="6" r="0.5" fill="#ffffff" opacity="0.8"/>
  <circle cx="12" cy="4" r="0.3" fill="#ffffff" opacity="0.6"/>
  <circle cx="28" cy="8" r="0.4" fill="#ffffff" opacity="0.7"/>
  <circle cx="24" cy="28" r="0.3" fill="#ffffff" opacity="0.5"/>
  <circle cx="8" cy="26" r="0.4" fill="#ffffff" opacity="0.6"/>
  <circle cx="26" cy="15" r="0.3" fill="#ffffff" opacity="0.8"/>
  <circle cx="18" cy="30" r="0.3" fill="#ffffff" opacity="0.4"/>
  
  <!-- Main "W" letter with cosmic glow -->
  <defs>
    <filter id="glow">
      <feGaussianBlur stdDeviation="1" result="coloredBlur"/>
      <feMerge> 
        <feMergeNode in="coloredBlur"/>
        <feMergeNode in="SourceGraphic"/>
      </feMerge>
    </filter>
  </defs>
  
  <!-- W letter -->
  <path d="M 6 10 L 8 22 L 10 18 L 12 22 L 14 18 L 16 22 L 18 18 L 20 22 L 22 18 L 24 22 L 26 10 L 24 10 L 23 18 L 21 14 L 19 18 L 17 14 L 15 18 L 13 14 L 11 18 L 9 14 L 8 10 Z" 
        fill="#ffffff" 
        filter="url(#glow)"
        opacity="0.9"/>
  
  <!-- Accent cosmic elements -->
  <circle cx="16" cy="16" r="8" fill="none" stroke="rgba(255,255,255,0.1)" stroke-width="0.5"/>
  <circle cx="16" cy="16" r="12" fill="none" stroke="rgba(255,255,255,0.05)" stroke-width="0.3"/>
</svg>
